HIERARCHY
ROOT mixamorig:Hips
{
	OFFSET 0.000000 201.639420 0.000000
	CHANNELS 6 Xposition Yposition Zposition Xrotation Yrotation Zrotation
	JOINT mixamorig:Spine
	{
		OFFSET 0.006200 19.524994 -2.481800
		CHANNELS 3 Xrotation Yrotation Zrotation
		JOINT mixamorig:Spine1
		{
			OFFSET -0.000900 22.835007 -2.825400
			CHANNELS 3 Xrotation Yrotation Zrotation
			JOINT mixamorig:Spine2
			{
				OFFSET -0.020600 26.552490 -3.193300
				CHANNELS 3 Xrotation Yrotation Zrotation
				JOINT mixamorig:Neck
				{
					OFFSET -0.060000 30.701813 1.352200
					CHANNELS 3 Xrotation Yrotation Zrotation
					JOINT mixamorig:Head
					{
						OFFSET -0.087200 22.547607 3.670900
						CHANNELS 3 Xrotation Yrotation Zrotation
						JOINT mixamorig:HeadTop_End
						{
							OFFSET -0.830600 40.355194 7.893500
							CHANNELS 3 Xrotation Yrotation Zrotation
							End Site
							{
								OFFSET 0.000000 30.592346 0.000000
							}
						}
						JOINT mixamorig:RightEye
						{
							OFFSET -6.302100 18.118591 16.197100
							CHANNELS 3 Xrotation Yrotation Zrotation
							End Site
							{
								OFFSET 0.000000 30.592346 0.000000
							}
						}
						JOINT mixamorig:LeftEye
						{
							OFFSET 6.741500 18.382690 16.401899
							CHANNELS 3 Xrotation Yrotation Zrotation
							End Site
							{
								OFFSET 0.000000 30.592346 0.000000
							}
						}
					}
				}
				JOINT mixamorig:LeftShoulder
				{
					OFFSET 11.924900 18.230499 1.425400
					CHANNELS 3 Xrotation Yrotation Zrotation
					JOINT mixamorig:LeftArm
					{
						OFFSET 25.435989 -0.697632 -5.229300
						CHANNELS 3 Xrotation Yrotation Zrotation
						JOINT mixamorig:LeftForeArm
						{
							OFFSET 54.684776 0.000000 0.000000
							CHANNELS 3 Xrotation Yrotation Zrotation
							JOINT mixamorig:LeftHand
							{
								OFFSET 55.098175 0.000000 0.000000
								CHANNELS 3 Xrotation Yrotation Zrotation
								JOINT mixamorig:LeftHandMiddle1
								{
									OFFSET 23.369751 0.000000 0.000000
									CHANNELS 3 Xrotation Yrotation Zrotation
									JOINT mixamorig:LeftHandMiddle2
									{
										OFFSET 6.378677 0.000000 0.000000
										CHANNELS 3 Xrotation Yrotation Zrotation
										JOINT mixamorig:LeftHandMiddle3
										{
											OFFSET 6.148331 0.000000 0.000000
											CHANNELS 3 Xrotation Yrotation Zrotation
											JOINT mixamorig:LeftHandMiddle4
											{
												OFFSET 6.582504 0.000000 0.000000
												CHANNELS 3 Xrotation Yrotation Zrotation
												End Site
												{
													OFFSET -1.168900 6.395691 1.028606
												}
											}
										}
									}
								}
								JOINT mixamorig:LeftHandThumb1
								{
									OFFSET 7.235672 -3.848206 5.434273
									CHANNELS 3 Xrotation Yrotation Zrotation
									JOINT mixamorig:LeftHandThumb2
									{
										OFFSET 6.568451 -3.792297 3.792300
										CHANNELS 3 Xrotation Yrotation Zrotation
										JOINT mixamorig:LeftHandThumb3
										{
											OFFSET 6.063080 -3.500519 3.500518
											CHANNELS 3 Xrotation Yrotation Zrotation
											JOINT mixamorig:LeftHandThumb4
											{
												OFFSET 4.793182 -2.767334 2.767349
												CHANNELS 3 Xrotation Yrotation Zrotation
												End Site
												{
													OFFSET 0.101639 6.054260 1.275483
												}
											}
										}
									}
								}
								JOINT mixamorig:LeftHandIndex1
								{
									OFFSET 23.101074 -0.309540 4.992809
									CHANNELS 3 Xrotation Yrotation Zrotation
									JOINT mixamorig:LeftHandIndex2
									{
										OFFSET 6.226883 0.000000 0.000000
										CHANNELS 3 Xrotation Yrotation Zrotation
										JOINT mixamorig:LeftHandIndex3
										{
											OFFSET 6.094330 0.000000 0.000000
											CHANNELS 3 Xrotation Yrotation Zrotation
											JOINT mixamorig:LeftHandIndex4
											{
												OFFSET 5.482605 0.000000 0.000000
												CHANNELS 3 Xrotation Yrotation Zrotation
												End Site
												{
													OFFSET -1.427902 5.233032 0.797164
												}
											}
										}
									}
								}
								JOINT mixamorig:LeftHandRing1
								{
									OFFSET 22.299240 0.021149 -3.964172
									CHANNELS 3 Xrotation Yrotation Zrotation
									JOINT mixamorig:LeftHandRing2
									{
										OFFSET 6.321869 0.000000 0.000000
										CHANNELS 3 Xrotation Yrotation Zrotation
										JOINT mixamorig:LeftHandRing3
										{
											OFFSET 5.899796 0.000000 0.000000
											CHANNELS 3 Xrotation Yrotation Zrotation
											JOINT mixamorig:LeftHandRing4
											{
												OFFSET 6.517899 0.000000 0.000000
												CHANNELS 3 Xrotation Yrotation Zrotation
												End Site
												{
													OFFSET -1.637299 6.232208 0.980890
												}
											}
										}
									}
								}
								JOINT mixamorig:LeftHandPinky1
								{
									OFFSET 20.463791 -0.302338 -8.562233
									CHANNELS 3 Xrotation Yrotation Zrotation
									JOINT mixamorig:LeftHandPinky2
									{
										OFFSET 6.908646 0.000000 0.000000
										CHANNELS 3 Xrotation Yrotation Zrotation
										JOINT mixamorig:LeftHandPinky3
										{
											OFFSET 4.622849 0.000000 0.000000
											CHANNELS 3 Xrotation Yrotation Zrotation
											JOINT mixamorig:LeftHandPinky4
											{
												OFFSET 5.216080 0.000000 0.000000
												CHANNELS 3 Xrotation Yrotation Zrotation
												End Site
												{
													OFFSET -0.606308 5.116241 0.814926
												}
											}
										}
									}
								}
							}
						}
					}
				}
				JOINT mixamorig:RightShoulder
				{
					OFFSET -12.001300 18.284088 1.348900
					CHANNELS 3 Xrotation Yrotation Zrotation
					JOINT mixamorig:RightArm
					{
						OFFSET -25.308500 -0.751312 -5.164599
						CHANNELS 3 Xrotation Yrotation Zrotation
						JOINT mixamorig:RightForeArm
						{
							OFFSET -54.684429 0.000000 0.000000
							CHANNELS 3 Xrotation Yrotation Zrotation
							JOINT mixamorig:RightHand
							{
								OFFSET -55.150291 0.000000 0.000000
								CHANNELS 3 Xrotation Yrotation Zrotation
								JOINT mixamorig:RightHandMiddle1
								{
									OFFSET -23.317566 0.000000 0.000000
									CHANNELS 3 Xrotation Yrotation Zrotation
									JOINT mixamorig:RightHandMiddle2
									{
										OFFSET -6.378403 0.000000 0.000000
										CHANNELS 3 Xrotation Yrotation Zrotation
										JOINT mixamorig:RightHandMiddle3
										{
											OFFSET -6.148193 0.000000 0.000000
											CHANNELS 3 Xrotation Yrotation Zrotation
											JOINT mixamorig:RightHandMiddle4
											{
												OFFSET -6.583389 0.000000 0.000000
												CHANNELS 3 Xrotation Yrotation Zrotation
												End Site
												{
													OFFSET 1.171692 6.395905 1.029786
												}
											}
										}
									}
								}
								JOINT mixamorig:RightHandThumb1
								{
									OFFSET -7.190521 -3.860474 5.435846
									CHANNELS 3 Xrotation Yrotation Zrotation
									JOINT mixamorig:RightHandThumb2
									{
										OFFSET -6.567429 -3.791718 3.791708
										CHANNELS 3 Xrotation Yrotation Zrotation
										JOINT mixamorig:RightHandThumb3
										{
											OFFSET -6.062469 -3.500153 3.500166
											CHANNELS 3 Xrotation Yrotation Zrotation
											JOINT mixamorig:RightHandThumb4
											{
												OFFSET -4.792618 -2.767029 2.767022
												CHANNELS 3 Xrotation Yrotation Zrotation
												End Site
												{
													OFFSET -0.100327 6.053253 1.276754
												}
											}
										}
									}
								}
								JOINT mixamorig:RightHandIndex1
								{
									OFFSET -23.048981 -0.310791 4.992554
									CHANNELS 3 Xrotation Yrotation Zrotation
									JOINT mixamorig:RightHandIndex2
									{
										OFFSET -6.227539 0.000000 0.000000
										CHANNELS 3 Xrotation Yrotation Zrotation
										JOINT mixamorig:RightHandIndex3
										{
											OFFSET -6.095047 0.000000 0.000000
											CHANNELS 3 Xrotation Yrotation Zrotation
											JOINT mixamorig:RightHandIndex4
											{
												OFFSET -5.484772 0.000000 0.000000
												CHANNELS 3 Xrotation Yrotation Zrotation
												End Site
												{
													OFFSET 1.420593 5.237305 0.797056
												}
											}
										}
									}
								}
								JOINT mixamorig:RightHandRing1
								{
									OFFSET -22.246323 0.020569 -3.963762
									CHANNELS 3 Xrotation Yrotation Zrotation
									JOINT mixamorig:RightHandRing2
									{
										OFFSET -6.322128 0.000000 0.000000
										CHANNELS 3 Xrotation Yrotation Zrotation
										JOINT mixamorig:RightHandRing3
										{
											OFFSET -5.900024 0.000000 0.000000
											CHANNELS 3 Xrotation Yrotation Zrotation
											JOINT mixamorig:RightHandRing4
											{
												OFFSET -6.518356 0.000000 0.000000
												CHANNELS 3 Xrotation Yrotation Zrotation
												End Site
												{
													OFFSET 1.636398 6.232697 0.982186
												}
											}
										}
									}
								}
								JOINT mixamorig:RightHandPinky1
								{
									OFFSET -20.411011 -0.303314 -8.561701
									CHANNELS 3 Xrotation Yrotation Zrotation
									JOINT mixamorig:RightHandPinky2
									{
										OFFSET -6.907349 0.000000 0.000000
										CHANNELS 3 Xrotation Yrotation Zrotation
										JOINT mixamorig:RightHandPinky3
										{
											OFFSET -4.623840 0.000000 0.000000
											CHANNELS 3 Xrotation Yrotation Zrotation
											JOINT mixamorig:RightHandPinky4
											{
												OFFSET -5.218353 0.000000 0.000000
												CHANNELS 3 Xrotation Yrotation Zrotation
												End Site
												{
													OFFSET 0.602097 5.118835 0.816273
												}
											}
										}
									}
								}
							}
						}
					}
				}
			}
		}
	}
	JOINT mixamorig:LeftUpLeg
	{
		OFFSET 18.168400 -13.561905 -0.039000
		CHANNELS 3 Xrotation Yrotation Zrotation
		JOINT mixamorig:LeftLeg
		{
			OFFSET 0.577358 -80.825211 -3.695000
			CHANNELS 3 Xrotation Yrotation Zrotation
			JOINT mixamorig:LeftFoot
			{
				OFFSET -0.577356 -83.370262 -6.520700
				CHANNELS 3 Xrotation Yrotation Zrotation
				JOINT mixamorig:LeftToeBase
				{
					OFFSET 0.750401 -20.798306 25.135401
					CHANNELS 3 Xrotation Yrotation Zrotation
					JOINT mixamorig:LeftToe_End
					{
						OFFSET -0.000500 0.001200 19.917799
						CHANNELS 3 Xrotation Yrotation Zrotation
						End Site
						{
							OFFSET 0.000000 19.917805 0.000000
						}
					}
				}
			}
		}
	}
	JOINT mixamorig:RightUpLeg
	{
		OFFSET -18.162500 -13.585098 -0.041000
		CHANNELS 3 Xrotation Yrotation Zrotation
		JOINT mixamorig:RightLeg
		{
			OFFSET -0.595024 -80.945297 -3.631900
			CHANNELS 3 Xrotation Yrotation Zrotation
			JOINT mixamorig:RightFoot
			{
				OFFSET 0.595024 -83.218193 -6.561200
				CHANNELS 3 Xrotation Yrotation Zrotation
				JOINT mixamorig:RightToeBase
				{
					OFFSET -0.753601 -20.807106 25.115000
					CHANNELS 3 Xrotation Yrotation Zrotation
					JOINT mixamorig:RightToe_End
					{
						OFFSET 0.000299 0.001700 19.918200
						CHANNELS 3 Xrotation Yrotation Zrotation
						End Site
						{
							OFFSET 0.000000 19.918203 0.000000
						}
					}
				}
			}
		}
	}
}
MOTION
Frames: 4
Frame Time: 0.033333
33.316566 194.189377 -302.677368 -16.903813 -38.978913 -9.388847 7.991548 -0.056118 -0.143730 16.413457 -0.125520 -0.745992 16.413515 -0.192923 -0.721088 0.367403 7.480962 0.837546 -6.982134 21.597270 11.882999 -0.000000 0.000001 -0.000001 -0.000000 0.000001 -0.000001 -0.000000 0.000001 -0.000001 -37.571081 -4.822513 1.545825 -41.628446 -7.015820 -61.684360 0.000004 -64.995882 0.000005 -119.359632 1.120099 32.550288 0.405911 5.507025 -52.453172 3.387126 5.308613 -65.057484 0.282022 1.797460 -17.832377 0.000002 0.000003 -0.000001 4.709212 9.560371 3.111990 19.473189 -1.474893 7.636919 -4.536176 -9.613124 1.492976 0.000001 0.000002 0.000001 -0.212820 3.933703 -36.747125 2.942143 5.078899 -60.144597 0.513667 2.400807 -24.150521 -0.000001 0.000002 -0.000002 -0.074372 5.736801 -61.061427 4.055024 5.569521 -72.094921 0.582663 2.548981 -25.747996 -0.000005 0.000004 -0.000005 -6.565570 4.545137 -72.425229 3.299621 5.267207 -64.107821 0.175337 1.424017 -14.038878 0.000001 -0.000005 0.000002 -41.176287 -8.605638 -9.942309 -46.819666 58.242942 100.948686 -0.001046 98.443025 0.001036 -52.463103 -17.216636 -29.273129 3.413058 -7.186264 51.650256 6.296832 -4.359597 110.634660 0.248730 -1.503063 18.790262 0.000000 0.000000 -0.000001 8.377145 -4.904123 11.022013 21.620199 -18.183903 -18.379218 -0.702952 -49.821200 -32.535193 0.000003 0.000002 -0.000001 -0.920031 1.683571 12.434988 0.748112 -2.533454 32.898293 0.615635 -2.316068 29.767832 0.000001 0.000001 -0.000001 -3.349038 -2.600430 57.010571 5.440867 -4.590907 99.698133 1.689410 -3.590694 50.382248 0.000000 0.000000 -0.000002 -3.996444 -3.303947 64.593857 4.058852 -4.618647 82.610523 2.315549 -4.026782 59.787221 0.000000 -0.000001 -0.000002 -22.428917 42.939924 28.554629 22.067467 0.654895 -0.657939 4.270953 1.199843 -2.585383 0.000035 -0.000004 0.000001 0.000000 0.000001 -0.000000 2.240216 5.288778 -5.424514 31.201510 -0.433657 1.065887 -18.912642 -17.324220 4.271728 -0.020498 0.000002 -0.000001 0.000000 0.000002 0.000000 
31.193611 192.887329 -303.128174 -15.706660 -38.747383 -8.512003 8.087639 -0.414484 0.347746 15.903875 -0.209409 -0.928242 15.908450 -0.286280 -0.906016 0.179527 7.324491 0.949773 -6.072285 22.109920 10.877208 -0.000001 0.000000 -0.000000 -0.000001 0.000000 -0.000000 -0.000001 0.000000 -0.000000 -36.379807 -5.072045 1.848788 -42.605907 -6.991118 -61.230091 0.000009 -65.274718 0.000010 -120.160854 0.426223 32.023369 0.405911 5.507031 -52.453172 3.387129 5.308613 -65.057477 0.282017 1.797460 -17.832377 -0.000000 0.000001 0.000004 4.610964 9.265555 3.109365 19.473190 -1.474893 7.636921 -4.536179 -9.613122 1.492975 0.000000 -0.000001 0.000001 -1.882825 2.129425 -39.817018 2.947079 5.081729 -60.200536 0.514391 2.402395 -24.167397 -0.000003 -0.000003 -0.000003 -0.074374 5.736803 -61.061427 4.422087 5.674488 -75.840406 0.582662 2.548980 -25.747998 -0.000004 -0.000001 -0.000003 2.216814 7.072475 -64.435431 4.422614 5.674600 -75.845781 1.294127 3.673936 -38.798473 0.000000 -0.000001 -0.000000 -39.894800 -8.095403 -9.380926 -46.926654 57.746599 99.507653 0.000010 98.655464 0.000046 -51.902430 -17.860969 -28.869434 3.413057 -7.186264 51.650256 6.296832 -4.359596 110.634660 0.248730 -1.503062 18.790259 0.000000 0.000000 -0.000000 8.377146 -4.904123 11.022014 21.620199 -18.183905 -18.379214 -0.702953 -49.821206 -32.535189 -0.000002 -0.000000 0.000002 -1.101393 1.407150 15.159496 1.422345 -3.352166 45.974102 0.615634 -2.316069 29.767836 0.000001 -0.000000 0.000002 -3.349040 -2.600428 57.010568 5.440867 -4.590905 99.698133 1.689413 -3.590695 50.382248 -0.000001 0.000001 -0.000005 -3.996446 -3.303946 64.593857 4.058854 -4.618649 82.610523 2.315548 -4.026780 59.787214 0.000000 0.000001 -0.000002 -25.543154 41.713891 30.550944 25.227215 0.239308 -0.670616 3.179322 1.205871 -3.181844 -0.000049 0.000005 0.000002 0.000000 0.000001 0.000000 0.120403 4.207547 -4.961300 34.283482 0.619252 1.180836 -21.875493 -17.394639 2.783004 0.460654 -0.000001 0.000000 0.000000 0.000002 -0.000000 
29.251314 189.928558 -305.520752 -14.172472 -38.461085 -7.786906 9.155127 -0.882521 1.680107 15.132173 -0.285580 -1.086245 15.142196 -0.379807 -1.069086 -0.286884 7.239255 0.871604 -4.954069 23.402243 8.938877 0.000000 0.000000 -0.000001 0.000000 0.000000 -0.000001 0.000000 0.000000 -0.000001 -34.587487 -5.566947 2.071839 -44.269680 -6.407618 -60.671054 0.000064 -65.850175 0.000071 -120.767621 -0.267663 31.418170 0.405912 5.507033 -52.453175 3.387125 5.308612 -65.057477 0.282020 1.797461 -17.832376 0.000007 0.000002 -0.000007 4.458186 8.808133 3.103991 19.473192 -1.474894 7.636921 -4.536177 -9.613121 1.492978 0.000004 -0.000000 0.000001 -1.882824 2.129411 -39.817018 2.947089 5.081737 -60.200536 0.514393 2.402402 -24.167378 0.000001 -0.000001 0.000002 -0.074373 5.736805 -61.061427 4.422075 5.674495 -75.840406 0.582666 2.548979 -25.747996 -0.000003 0.000001 0.000002 2.216800 7.072466 -64.435417 4.422627 5.674613 -75.845774 1.294125 3.673938 -38.798470 0.000000 -0.000000 0.000001 -38.003360 -7.309270 -8.709257 -47.254937 57.116152 97.483643 0.000031 98.912607 -0.000040 -51.029245 -18.572304 -28.261972 3.413059 -7.186263 51.650256 6.296833 -4.359597 110.634660 0.248730 -1.503063 18.790265 0.000000 -0.000000 -0.000000 8.377148 -4.904123 11.022015 21.620199 -18.183903 -18.379218 -0.702954 -49.821200 -32.535186 0.000001 -0.000000 -0.000004 -1.101388 1.407144 15.159521 1.422355 -3.352151 45.974099 0.615634 -2.316068 29.767836 0.000001 0.000000 0.000000 -3.349037 -2.600429 57.010575 5.440867 -4.590907 99.698140 1.689411 -3.590694 50.382248 -0.000001 0.000001 -0.000005 -3.996445 -3.303945 64.593857 4.058852 -4.618650 82.610523 2.315549 -4.026780 59.787221 0.000000 -0.000001 -0.000000 -31.730112 38.998512 34.385146 31.384309 -0.295089 -0.655560 1.461542 1.246534 -3.609048 -0.000093 -0.000001 -0.000001 0.000000 -0.000000 0.000000 -4.681764 2.853741 -3.629177 40.840023 1.912235 0.952742 -24.995670 -17.547582 0.778015 0.926500 0.000005 -0.000002 -0.000000 0.000002 -0.000000 
28.093758 187.509277 -307.749237 -12.950203 -38.100281 -6.986702 10.014033 -1.376060 2.414558 14.666511 -0.335039 -1.018621 14.675406 -0.435086 -1.006018 -0.731387 7.222177 0.650318 -4.419050 24.172921 7.448596 -0.000001 0.000001 -0.000001 -0.000001 0.000001 -0.000001 -0.000001 0.000001 -0.000001 -33.391613 -5.991904 2.094196 -45.471134 -5.391029 -60.193904 0.000003 -66.694878 -0.000013 -120.735615 -0.462232 31.233738 0.405911 5.507028 -52.453172 3.387123 5.308611 -65.057477 0.282021 1.797461 -17.832376 0.000007 0.000001 -0.000002 4.353124 8.494332 3.099390 19.473195 -1.474892 7.636919 -4.536178 -9.613124 1.492985 0.000000 0.000002 -0.000002 -1.882820 2.129423 -39.817015 2.947110 5.081719 -60.200529 0.514381 2.402384 -24.167393 -0.000000 0.000000 -0.000002 -0.074372 5.736798 -61.061427 4.422088 5.674481 -75.840412 0.582665 2.548981 -25.748000 -0.000001 -0.000001 0.000002 2.216805 7.072468 -64.435431 4.422628 5.674616 -75.845747 1.294133 3.673940 -38.798470 0.000000 -0.000001 -0.000000 -36.822089 -6.750483 -8.617809 -48.057218 56.973323 96.570679 0.001457 98.952687 -0.001453 -50.493232 -18.438319 -27.966541 3.413059 -7.186265 51.650256 6.296833 -4.359596 110.634660 0.248729 -1.503063 18.790259 0.000000 -0.000000 0.000001 8.377147 -4.904124 11.022013 21.620201 -18.183910 -18.379214 -0.702954 -49.821203 -32.535193 0.000000 -0.000000 -0.000001 -1.101405 1.407137 15.159519 1.422362 -3.352161 45.974082 0.615632 -2.316068 29.767836 0.000001 0.000000 -0.000000 -3.349037 -2.600430 57.010571 5.440867 -4.590906 99.698140 1.689410 -3.590694 50.382245 -0.000001 0.000001 0.000000 -3.996445 -3.303945 64.593857 4.058853 -4.618649 82.610523 2.315549 -4.026782 59.787221 0.000000 0.000001 -0.000002 -34.268340 32.396574 34.311189 37.815592 4.345951 -0.630124 0.889996 1.823042 -3.539830 -0.366959 -0.000008 0.000000 0.000000 -0.000001 -0.000000 -8.654994 1.790283 -2.887419 45.951228 2.581435 0.648511 -26.166964 -17.708589 -0.312616 0.950689 -0.000091 0.089079 -0.000000 0.000002 -0.000000 
